<svg width="206" height="16" viewBox="0 0 206 16" fill="none" xmlns="http://www.w3.org/2000/svg">
<path d="M0.162109 0.78125H4.72266C5.67318 0.78125 6.48372 0.94401 7.1543 1.26953C7.82487 1.59505 8.33919 2.07682 8.69727 2.71484C9.05534 3.35286 9.23438 4.14062 9.23438 5.07812C9.23438 5.84635 9.13021 6.50391 8.92188 7.05078C8.71354 7.59115 8.41732 8.04362 8.0332 8.4082C7.64909 8.76628 7.1901 9.05273 6.65625 9.26758L5.78711 9.78516H2.08594L2.07617 7.41211H4.64453C5.03516 7.41211 5.35742 7.32747 5.61133 7.1582C5.87174 6.98242 6.0638 6.73828 6.1875 6.42578C6.31771 6.10677 6.38281 5.73568 6.38281 5.3125C6.38281 4.86328 6.32422 4.47917 6.20703 4.16016C6.09635 3.83464 5.91732 3.58724 5.66992 3.41797C5.42904 3.24219 5.11328 3.1543 4.72266 3.1543H3.02344V15H0.162109V0.78125ZM6.61719 15L4.00977 8.66211L7.00781 8.65234L9.67383 14.8633V15H6.61719ZM13.2285 4.43359V15H11.5098V4.43359H13.2285ZM11.4121 1.63086C11.4121 1.33789 11.4935 1.09049 11.6562 0.888672C11.819 0.686849 12.0632 0.585938 12.3887 0.585938C12.7142 0.585938 12.9583 0.686849 13.1211 0.888672C13.2904 1.09049 13.375 1.33789 13.375 1.63086C13.375 1.91081 13.2904 2.15169 13.1211 2.35352C12.9583 2.54883 12.7142 2.64648 12.3887 2.64648C12.0632 2.64648 11.819 2.54883 11.6562 2.35352C11.4935 2.15169 11.4121 1.91081 11.4121 1.63086ZM21.0898 12.2949C21.0898 12.028 21.0247 11.7936 20.8945 11.5918C20.7643 11.39 20.5495 11.1947 20.25 11.0059C19.957 10.8171 19.5599 10.6152 19.0586 10.4004C18.5703 10.1986 18.1309 10 17.7402 9.80469C17.3561 9.60286 17.0306 9.38477 16.7637 9.15039C16.4967 8.91602 16.2917 8.64583 16.1484 8.33984C16.0117 8.02734 15.9434 7.65951 15.9434 7.23633C15.9434 6.81315 16.0215 6.42253 16.1777 6.06445C16.3405 5.69987 16.5684 5.38086 16.8613 5.10742C17.1543 4.83398 17.5059 4.6224 17.916 4.47266C18.3262 4.31641 18.7852 4.23828 19.293 4.23828C20.0156 4.23828 20.6309 4.37826 21.1387 4.6582C21.6465 4.93815 22.0339 5.32227 22.3008 5.81055C22.5742 6.29232 22.7109 6.83594 22.7109 7.44141H20.9922C20.9922 7.14844 20.9271 6.87174 20.7969 6.61133C20.6667 6.35091 20.4746 6.13932 20.2207 5.97656C19.9668 5.80729 19.6576 5.72266 19.293 5.72266C18.9089 5.72266 18.5964 5.79102 18.3555 5.92773C18.1146 6.06445 17.9388 6.24349 17.8281 6.46484C17.724 6.67969 17.6719 6.91732 17.6719 7.17773C17.6719 7.37305 17.6979 7.54232 17.75 7.68555C17.8086 7.82227 17.9062 7.95247 18.043 8.07617C18.1797 8.19336 18.3652 8.31706 18.5996 8.44727C18.8405 8.57096 19.1465 8.71419 19.5176 8.87695C20.2337 9.1569 20.8359 9.4401 21.3242 9.72656C21.8125 10.013 22.1836 10.3483 22.4375 10.7324C22.6914 11.1165 22.8184 11.5918 22.8184 12.1582C22.8184 12.6204 22.7337 13.0404 22.5645 13.418C22.4017 13.7891 22.1673 14.1081 21.8613 14.375C21.5553 14.6419 21.1875 14.847 20.7578 14.9902C20.3346 15.127 19.8594 15.1953 19.332 15.1953C18.5378 15.1953 17.8639 15.0391 17.3105 14.7266C16.7637 14.4076 16.347 13.9941 16.0605 13.4863C15.7806 12.972 15.6406 12.4219 15.6406 11.8359H17.3691C17.3887 12.3307 17.4993 12.7148 17.7012 12.9883C17.9095 13.2617 18.1602 13.4505 18.4531 13.5547C18.7461 13.6589 19.0391 13.7109 19.332 13.7109C19.7161 13.7109 20.0384 13.6556 20.2988 13.5449C20.5592 13.4277 20.7546 13.2617 20.8848 13.0469C21.0215 12.832 21.0898 12.5814 21.0898 12.2949ZM26.8223 0V15H25.0938V0H26.8223ZM32.1836 4.43359L28.4238 9.36523L26.0996 12.041L25.9824 10.1172L27.584 7.91016L30.1035 4.43359H32.1836ZM30.6016 15L27.6328 9.96094L28.5215 8.34961L32.6133 15H30.6016ZM43.3555 8.79883H40.4355L40.4258 6.72852H42.9062C43.2969 6.72852 43.6159 6.66341 43.8633 6.5332C44.1172 6.39648 44.3027 6.19792 44.4199 5.9375C44.5436 5.67057 44.6055 5.34505 44.6055 4.96094C44.6055 4.53125 44.5469 4.1862 44.4297 3.92578C44.319 3.65885 44.14 3.46354 43.8926 3.33984C43.6517 3.21615 43.3327 3.1543 42.9355 3.1543H41.4121V15H38.5508V0.78125H42.9355C43.6452 0.78125 44.2799 0.859375 44.8398 1.01562C45.3997 1.17188 45.8717 1.40951 46.2559 1.72852C46.6465 2.04753 46.946 2.45117 47.1543 2.93945C47.3626 3.42773 47.4668 4.00391 47.4668 4.66797C47.4668 5.25391 47.3496 5.79427 47.1152 6.28906C46.8809 6.78385 46.513 7.19076 46.0117 7.50977C45.5169 7.82227 44.8691 7.99479 44.0684 8.02734L43.3555 8.79883ZM43.248 15H39.625L40.7676 12.6367H43.248C43.6322 12.6367 43.9382 12.5553 44.166 12.3926C44.3939 12.2298 44.5599 12.0117 44.6641 11.7383C44.7747 11.4583 44.8301 11.1393 44.8301 10.7812C44.8301 10.3776 44.7812 10.026 44.6836 9.72656C44.5924 9.42708 44.4395 9.19922 44.2246 9.04297C44.0098 8.88021 43.7201 8.79883 43.3555 8.79883H40.8945L40.9141 6.72852H43.9023L44.5762 7.54883C45.3379 7.52279 45.9466 7.66927 46.4023 7.98828C46.8581 8.30078 47.1836 8.71094 47.3789 9.21875C47.5807 9.72005 47.6816 10.2539 47.6816 10.8203C47.6816 11.7318 47.5091 12.5 47.1641 13.125C46.8255 13.7435 46.3275 14.2122 45.6699 14.5312C45.0124 14.8438 44.2051 15 43.248 15ZM55.1035 13.1934V7.46094C55.1035 7.04427 55.0384 6.70898 54.9082 6.45508C54.7845 6.20117 54.5957 6.01562 54.3418 5.89844C54.0944 5.78125 53.7819 5.72266 53.4043 5.72266C53.0397 5.72266 52.724 5.79753 52.457 5.94727C52.1966 6.09701 51.9948 6.29557 51.8516 6.54297C51.7148 6.79036 51.6465 7.0638 51.6465 7.36328H49.918C49.918 6.98568 49.9993 6.61133 50.1621 6.24023C50.3314 5.86914 50.5723 5.53385 50.8848 5.23438C51.1973 4.92839 51.5716 4.6875 52.0078 4.51172C52.4505 4.32943 52.9453 4.23828 53.4922 4.23828C54.1432 4.23828 54.7194 4.3457 55.2207 4.56055C55.722 4.76888 56.1159 5.11068 56.4023 5.58594C56.6888 6.0612 56.832 6.69271 56.832 7.48047V12.6953C56.832 13.0469 56.8581 13.4212 56.9102 13.8184C56.9688 14.2155 57.0501 14.5573 57.1543 14.8438V15H55.3672C55.2826 14.7917 55.2174 14.515 55.1719 14.1699C55.1263 13.8184 55.1035 13.4928 55.1035 13.1934ZM55.377 8.59375L55.3965 9.86328H54.1953C53.7852 9.86328 53.4108 9.90885 53.0723 10C52.7402 10.0911 52.4538 10.2246 52.2129 10.4004C51.972 10.5697 51.7865 10.7812 51.6562 11.0352C51.5326 11.2891 51.4707 11.5788 51.4707 11.9043C51.4707 12.3275 51.5293 12.666 51.6465 12.9199C51.7637 13.1673 51.9395 13.3464 52.1738 13.457C52.4082 13.5677 52.7044 13.623 53.0625 13.623C53.4987 13.623 53.8828 13.5221 54.2148 13.3203C54.5469 13.1185 54.804 12.8743 54.9863 12.5879C55.1751 12.3014 55.263 12.0345 55.25 11.7871L55.6309 12.5977C55.6048 12.8516 55.5202 13.1283 55.377 13.4277C55.2402 13.7207 55.0482 14.0039 54.8008 14.2773C54.5534 14.5443 54.2604 14.7656 53.9219 14.9414C53.5898 15.1107 53.2155 15.1953 52.7988 15.1953C52.1868 15.1953 51.6497 15.0781 51.1875 14.8438C50.7318 14.6094 50.377 14.2643 50.123 13.8086C49.8691 13.3529 49.7422 12.7897 49.7422 12.1191C49.7422 11.6113 49.8301 11.1426 50.0059 10.7129C50.1816 10.2832 50.4421 9.91211 50.7871 9.59961C51.1322 9.2806 51.5651 9.0332 52.0859 8.85742C52.6133 8.68164 53.222 8.59375 53.9121 8.59375H55.377ZM64.6445 12.2949C64.6445 12.028 64.5794 11.7936 64.4492 11.5918C64.319 11.39 64.1042 11.1947 63.8047 11.0059C63.5117 10.8171 63.1146 10.6152 62.6133 10.4004C62.125 10.1986 61.6855 10 61.2949 9.80469C60.9108 9.60286 60.5853 9.38477 60.3184 9.15039C60.0514 8.91602 59.8464 8.64583 59.7031 8.33984C59.5664 8.02734 59.498 7.65951 59.498 7.23633C59.498 6.81315 59.5762 6.42253 59.7324 6.06445C59.8952 5.69987 60.123 5.38086 60.416 5.10742C60.709 4.83398 61.0605 4.6224 61.4707 4.47266C61.8809 4.31641 62.3398 4.23828 62.8477 4.23828C63.5703 4.23828 64.1855 4.37826 64.6934 4.6582C65.2012 4.93815 65.5885 5.32227 65.8555 5.81055C66.1289 6.29232 66.2656 6.83594 66.2656 7.44141H64.5469C64.5469 7.14844 64.4818 6.87174 64.3516 6.61133C64.2214 6.35091 64.0293 6.13932 63.7754 5.97656C63.5215 5.80729 63.2122 5.72266 62.8477 5.72266C62.4635 5.72266 62.151 5.79102 61.9102 5.92773C61.6693 6.06445 61.4935 6.24349 61.3828 6.46484C61.2786 6.67969 61.2266 6.91732 61.2266 7.17773C61.2266 7.37305 61.2526 7.54232 61.3047 7.68555C61.3633 7.82227 61.4609 7.95247 61.5977 8.07617C61.7344 8.19336 61.9199 8.31706 62.1543 8.44727C62.3952 8.57096 62.7012 8.71419 63.0723 8.87695C63.7884 9.1569 64.3906 9.4401 64.8789 9.72656C65.3672 10.013 65.7383 10.3483 65.9922 10.7324C66.2461 11.1165 66.373 11.5918 66.373 12.1582C66.373 12.6204 66.2884 13.0404 66.1191 13.418C65.9564 13.7891 65.722 14.1081 65.416 14.375C65.11 14.6419 64.7422 14.847 64.3125 14.9902C63.8893 15.127 63.4141 15.1953 62.8867 15.1953C62.0924 15.1953 61.4186 15.0391 60.8652 14.7266C60.3184 14.4076 59.9017 13.9941 59.6152 13.4863C59.3353 12.972 59.1953 12.4219 59.1953 11.8359H60.9238C60.9434 12.3307 61.054 12.7148 61.2559 12.9883C61.4642 13.2617 61.7148 13.4505 62.0078 13.5547C62.3008 13.6589 62.5938 13.7109 62.8867 13.7109C63.2708 13.7109 63.5931 13.6556 63.8535 13.5449C64.1139 13.4277 64.3092 13.2617 64.4395 13.0469C64.5762 12.832 64.6445 12.5814 64.6445 12.2949ZM72.418 15.1953C71.7865 15.1953 71.2168 15.1009 70.709 14.9121C70.2012 14.7233 69.7682 14.4368 69.4102 14.0527C69.0521 13.6621 68.7786 13.1706 68.5898 12.5781C68.401 11.9857 68.3066 11.2858 68.3066 10.4785V9.28711C68.3066 8.35612 68.4141 7.56836 68.6289 6.92383C68.8503 6.2793 69.1465 5.76172 69.5176 5.37109C69.8887 4.97396 70.3086 4.6875 70.7773 4.51172C71.2461 4.32943 71.7279 4.23828 72.2227 4.23828C72.8867 4.23828 73.4531 4.3457 73.9219 4.56055C74.3906 4.77539 74.7715 5.0944 75.0645 5.51758C75.3574 5.94076 75.5723 6.46159 75.709 7.08008C75.8522 7.69857 75.9238 8.41146 75.9238 9.21875V10.2246H69.3223V8.75H74.1953V8.50586C74.1693 7.95898 74.0944 7.47721 73.9707 7.06055C73.8535 6.64388 73.6582 6.31836 73.3848 6.08398C73.1113 5.8431 72.724 5.72266 72.2227 5.72266C71.9036 5.72266 71.6074 5.77799 71.334 5.88867C71.0671 5.99284 70.8359 6.17839 70.6406 6.44531C70.4518 6.70573 70.3021 7.06706 70.1914 7.5293C70.0872 7.99154 70.0352 8.57747 70.0352 9.28711V10.4785C70.0352 11.0449 70.0872 11.5332 70.1914 11.9434C70.3021 12.347 70.4616 12.6823 70.6699 12.9492C70.8848 13.2096 71.1452 13.4049 71.4512 13.5352C71.7637 13.6589 72.1185 13.7207 72.5156 13.7207C73.0951 13.7207 73.5736 13.61 73.9512 13.3887C74.3288 13.1608 74.6576 12.8711 74.9375 12.5195L75.8457 13.6035C75.6569 13.8704 75.4095 14.1276 75.1035 14.375C74.804 14.6159 74.4329 14.8145 73.9902 14.9707C73.554 15.1204 73.0299 15.1953 72.418 15.1953ZM83.5508 12.9492V0H85.2695V15H83.6973L83.5508 12.9492ZM77.6426 10.2246V9.23828C77.6426 8.36589 77.7272 7.61719 77.8965 6.99219C78.0658 6.36068 78.3066 5.8431 78.6191 5.43945C78.9316 5.0293 79.306 4.72656 79.7422 4.53125C80.1784 4.33594 80.6602 4.23828 81.1875 4.23828C81.7344 4.23828 82.2031 4.34896 82.5938 4.57031C82.9909 4.79167 83.3229 5.11393 83.5898 5.53711C83.8568 5.95378 84.0651 6.46159 84.2148 7.06055C84.3711 7.65299 84.4753 8.32357 84.5273 9.07227V10.3906C84.4688 11.1328 84.3613 11.8001 84.2051 12.3926C84.0553 12.985 83.847 13.4896 83.5801 13.9062C83.3132 14.3229 82.9811 14.6419 82.584 14.8633C82.1868 15.0846 81.7148 15.1953 81.168 15.1953C80.6471 15.1953 80.1719 15.0944 79.7422 14.8926C79.3125 14.6842 78.9382 14.375 78.6191 13.9648C78.3066 13.5482 78.0658 13.0306 77.8965 12.4121C77.7272 11.7871 77.6426 11.0579 77.6426 10.2246ZM79.3711 9.23828V10.2246C79.3711 10.8105 79.4134 11.3216 79.498 11.7578C79.5827 12.1875 79.7161 12.5456 79.8984 12.832C80.0807 13.112 80.3118 13.3203 80.5918 13.457C80.8783 13.5938 81.2201 13.6621 81.6172 13.6621C82.099 13.6621 82.4928 13.5449 82.7988 13.3105C83.1048 13.0762 83.349 12.7669 83.5312 12.3828C83.7201 11.9922 83.8698 11.5723 83.9805 11.123V8.34961C83.9154 8.01758 83.821 7.69857 83.6973 7.39258C83.5736 7.08008 83.4173 6.80339 83.2285 6.5625C83.0462 6.3151 82.8216 6.11979 82.5547 5.97656C82.2943 5.83333 81.9883 5.76172 81.6367 5.76172C81.2396 5.76172 80.8945 5.83333 80.6016 5.97656C80.3151 6.11979 80.0807 6.33464 79.8984 6.62109C79.7227 6.90755 79.5892 7.26888 79.498 7.70508C79.4134 8.14128 79.3711 8.65234 79.3711 9.23828ZM97.5254 3.32031L94.4688 15H91.4512L95.8945 0.78125H97.7793L97.5254 3.32031ZM99.9375 15L96.8613 3.32031L96.5781 0.78125H98.4922L102.975 15H99.9375ZM100.045 9.69727V12.0703H93.6289V9.69727H100.045ZM109.82 12.5586V4.43359H111.549V15H109.908L109.82 12.5586ZM110.143 10.332L110.826 10.3125C110.826 11.0156 110.764 11.6667 110.641 12.2656C110.523 12.8581 110.328 13.3724 110.055 13.8086C109.788 14.2448 109.433 14.5866 108.99 14.834C108.548 15.0749 108.004 15.1953 107.359 15.1953C106.923 15.1953 106.526 15.1204 106.168 14.9707C105.816 14.821 105.51 14.5898 105.25 14.2773C104.996 13.9648 104.798 13.5579 104.654 13.0566C104.518 12.5553 104.449 11.9531 104.449 11.25V4.43359H106.168V11.2695C106.168 11.7448 106.21 12.1387 106.295 12.4512C106.38 12.7572 106.493 13.0013 106.637 13.1836C106.78 13.3594 106.939 13.4831 107.115 13.5547C107.291 13.6263 107.47 13.6621 107.652 13.6621C108.264 13.6621 108.753 13.5156 109.117 13.2227C109.482 12.9232 109.742 12.5228 109.898 12.0215C110.061 11.5137 110.143 10.9505 110.143 10.332ZM118.004 4.43359V5.82031H113.072V4.43359H118.004ZM114.684 1.86523H116.412V12.3828C116.412 12.7409 116.454 13.0111 116.539 13.1934C116.63 13.3757 116.744 13.4961 116.881 13.5547C117.018 13.6133 117.164 13.6426 117.32 13.6426C117.438 13.6426 117.568 13.6296 117.711 13.6035C117.854 13.571 117.952 13.5449 118.004 13.5254L117.994 15C117.877 15.0456 117.721 15.0879 117.525 15.127C117.33 15.1725 117.083 15.1953 116.783 15.1953C116.412 15.1953 116.067 15.1074 115.748 14.9316C115.429 14.7559 115.172 14.4629 114.977 14.0527C114.781 13.6361 114.684 13.0762 114.684 12.373V1.86523ZM121.793 0V15H120.064V0H121.793ZM121.373 9.31641L120.67 9.28711C120.663 8.56445 120.745 7.89714 120.914 7.28516C121.09 6.66667 121.337 6.12956 121.656 5.67383C121.982 5.2181 122.369 4.86654 122.818 4.61914C123.268 4.36523 123.766 4.23828 124.312 4.23828C124.742 4.23828 125.133 4.3099 125.484 4.45312C125.836 4.58984 126.135 4.8112 126.383 5.11719C126.63 5.42318 126.819 5.82031 126.949 6.30859C127.086 6.79036 127.154 7.37956 127.154 8.07617V15H125.426V8.05664C125.426 7.50326 125.364 7.06055 125.24 6.72852C125.123 6.38997 124.941 6.14583 124.693 5.99609C124.452 5.83984 124.146 5.76172 123.775 5.76172C123.437 5.76172 123.121 5.85612 122.828 6.04492C122.535 6.23372 122.278 6.49414 122.057 6.82617C121.842 7.1582 121.673 7.53906 121.549 7.96875C121.432 8.39193 121.373 8.84115 121.373 9.31641ZM133.512 15.1953C132.88 15.1953 132.311 15.1009 131.803 14.9121C131.295 14.7233 130.862 14.4368 130.504 14.0527C130.146 13.6621 129.872 13.1706 129.684 12.5781C129.495 11.9857 129.4 11.2858 129.4 10.4785V9.28711C129.4 8.35612 129.508 7.56836 129.723 6.92383C129.944 6.2793 130.24 5.76172 130.611 5.37109C130.982 4.97396 131.402 4.6875 131.871 4.51172C132.34 4.32943 132.822 4.23828 133.316 4.23828C133.98 4.23828 134.547 4.3457 135.016 4.56055C135.484 4.77539 135.865 5.0944 136.158 5.51758C136.451 5.94076 136.666 6.46159 136.803 7.08008C136.946 7.69857 137.018 8.41146 137.018 9.21875V10.2246H130.416V8.75H135.289V8.50586C135.263 7.95898 135.188 7.47721 135.064 7.06055C134.947 6.64388 134.752 6.31836 134.479 6.08398C134.205 5.8431 133.818 5.72266 133.316 5.72266C132.997 5.72266 132.701 5.77799 132.428 5.88867C132.161 5.99284 131.93 6.17839 131.734 6.44531C131.546 6.70573 131.396 7.06706 131.285 7.5293C131.181 7.99154 131.129 8.57747 131.129 9.28711V10.4785C131.129 11.0449 131.181 11.5332 131.285 11.9434C131.396 12.347 131.555 12.6823 131.764 12.9492C131.979 13.2096 132.239 13.4049 132.545 13.5352C132.857 13.6589 133.212 13.7207 133.609 13.7207C134.189 13.7207 134.667 13.61 135.045 13.3887C135.423 13.1608 135.751 12.8711 136.031 12.5195L136.939 13.6035C136.751 13.8704 136.503 14.1276 136.197 14.375C135.898 14.6159 135.527 14.8145 135.084 14.9707C134.648 15.1204 134.124 15.1953 133.512 15.1953ZM140.836 6.68945V15H139.107V4.43359H140.738L140.836 6.68945ZM140.416 9.31641L139.713 9.28711C139.706 8.56445 139.788 7.89714 139.957 7.28516C140.133 6.66667 140.38 6.12956 140.699 5.67383C141.025 5.2181 141.412 4.86654 141.861 4.61914C142.311 4.36523 142.809 4.23828 143.355 4.23828C143.785 4.23828 144.176 4.3099 144.527 4.45312C144.879 4.58984 145.178 4.8112 145.426 5.11719C145.673 5.42318 145.862 5.82031 145.992 6.30859C146.129 6.79036 146.197 7.37956 146.197 8.07617V15H144.469V8.05664C144.469 7.50326 144.407 7.06055 144.283 6.72852C144.166 6.38997 143.984 6.14583 143.736 5.99609C143.495 5.83984 143.189 5.76172 142.818 5.76172C142.48 5.76172 142.164 5.85612 141.871 6.04492C141.578 6.23372 141.321 6.49414 141.1 6.82617C140.885 7.1582 140.715 7.53906 140.592 7.96875C140.475 8.39193 140.416 8.84115 140.416 9.31641ZM152.652 4.43359V5.82031H147.721V4.43359H152.652ZM149.332 1.86523H151.061V12.3828C151.061 12.7409 151.103 13.0111 151.188 13.1934C151.279 13.3757 151.393 13.4961 151.529 13.5547C151.666 13.6133 151.812 13.6426 151.969 13.6426C152.086 13.6426 152.216 13.6296 152.359 13.6035C152.503 13.571 152.6 13.5449 152.652 13.5254L152.643 15C152.525 15.0456 152.369 15.0879 152.174 15.127C151.979 15.1725 151.731 15.1953 151.432 15.1953C151.061 15.1953 150.715 15.1074 150.396 14.9316C150.077 14.7559 149.82 14.4629 149.625 14.0527C149.43 13.6361 149.332 13.0762 149.332 12.373V1.86523ZM156.568 4.43359V15H154.85V4.43359H156.568ZM154.752 1.63086C154.752 1.33789 154.833 1.09049 154.996 0.888672C155.159 0.686849 155.403 0.585938 155.729 0.585938C156.054 0.585938 156.298 0.686849 156.461 0.888672C156.63 1.09049 156.715 1.33789 156.715 1.63086C156.715 1.91081 156.63 2.15169 156.461 2.35352C156.298 2.54883 156.054 2.64648 155.729 2.64648C155.403 2.64648 155.159 2.54883 154.996 2.35352C154.833 2.15169 154.752 1.91081 154.752 1.63086ZM162.965 13.7207C163.31 13.7207 163.622 13.6523 163.902 13.5156C164.189 13.3724 164.423 13.151 164.605 12.8516C164.788 12.5456 164.892 12.1484 164.918 11.6602H166.539C166.513 12.3633 166.334 12.9818 166.002 13.5156C165.676 14.043 165.247 14.4564 164.713 14.7559C164.186 15.0488 163.603 15.1953 162.965 15.1953C162.281 15.1953 161.686 15.0846 161.178 14.8633C160.676 14.6419 160.26 14.3229 159.928 13.9062C159.602 13.4831 159.358 12.972 159.195 12.373C159.033 11.7676 158.951 11.0807 158.951 10.3125V9.12109C158.951 8.35286 159.033 7.66927 159.195 7.07031C159.358 6.46484 159.602 5.95378 159.928 5.53711C160.26 5.11393 160.676 4.79167 161.178 4.57031C161.686 4.34896 162.281 4.23828 162.965 4.23828C163.681 4.23828 164.299 4.39128 164.82 4.69727C165.348 4.99674 165.758 5.43294 166.051 6.00586C166.35 6.57227 166.513 7.25911 166.539 8.06641H164.918C164.892 7.54557 164.798 7.11263 164.635 6.76758C164.472 6.41602 164.251 6.1556 163.971 5.98633C163.691 5.81055 163.355 5.72266 162.965 5.72266C162.509 5.72266 162.132 5.80404 161.832 5.9668C161.539 6.12305 161.308 6.35091 161.139 6.65039C160.969 6.94987 160.849 7.30794 160.777 7.72461C160.712 8.14128 160.68 8.60677 160.68 9.12109V10.3125C160.68 10.8268 160.712 11.2956 160.777 11.7188C160.849 12.1354 160.966 12.4935 161.129 12.793C161.298 13.0924 161.533 13.3236 161.832 13.4863C162.132 13.6426 162.509 13.7207 162.965 13.7207ZM173.717 13.1934V7.46094C173.717 7.04427 173.652 6.70898 173.521 6.45508C173.398 6.20117 173.209 6.01562 172.955 5.89844C172.708 5.78125 172.395 5.72266 172.018 5.72266C171.653 5.72266 171.337 5.79753 171.07 5.94727C170.81 6.09701 170.608 6.29557 170.465 6.54297C170.328 6.79036 170.26 7.0638 170.26 7.36328H168.531C168.531 6.98568 168.613 6.61133 168.775 6.24023C168.945 5.86914 169.186 5.53385 169.498 5.23438C169.811 4.92839 170.185 4.6875 170.621 4.51172C171.064 4.32943 171.559 4.23828 172.105 4.23828C172.757 4.23828 173.333 4.3457 173.834 4.56055C174.335 4.76888 174.729 5.11068 175.016 5.58594C175.302 6.0612 175.445 6.69271 175.445 7.48047V12.6953C175.445 13.0469 175.471 13.4212 175.523 13.8184C175.582 14.2155 175.663 14.5573 175.768 14.8438V15H173.98C173.896 14.7917 173.831 14.515 173.785 14.1699C173.74 13.8184 173.717 13.4928 173.717 13.1934ZM173.99 8.59375L174.01 9.86328H172.809C172.398 9.86328 172.024 9.90885 171.686 10C171.354 10.0911 171.067 10.2246 170.826 10.4004C170.585 10.5697 170.4 10.7812 170.27 11.0352C170.146 11.2891 170.084 11.5788 170.084 11.9043C170.084 12.3275 170.143 12.666 170.26 12.9199C170.377 13.1673 170.553 13.3464 170.787 13.457C171.021 13.5677 171.318 13.623 171.676 13.623C172.112 13.623 172.496 13.5221 172.828 13.3203C173.16 13.1185 173.417 12.8743 173.6 12.5879C173.788 12.3014 173.876 12.0345 173.863 11.7871L174.244 12.5977C174.218 12.8516 174.133 13.1283 173.99 13.4277C173.854 13.7207 173.661 14.0039 173.414 14.2773C173.167 14.5443 172.874 14.7656 172.535 14.9414C172.203 15.1107 171.829 15.1953 171.412 15.1953C170.8 15.1953 170.263 15.0781 169.801 14.8438C169.345 14.6094 168.99 14.2643 168.736 13.8086C168.482 13.3529 168.355 12.7897 168.355 12.1191C168.355 11.6113 168.443 11.1426 168.619 10.7129C168.795 10.2832 169.055 9.91211 169.4 9.59961C169.745 9.2806 170.178 9.0332 170.699 8.85742C171.227 8.68164 171.835 8.59375 172.525 8.59375H173.99ZM181.988 4.43359V5.82031H177.057V4.43359H181.988ZM178.668 1.86523H180.396V12.3828C180.396 12.7409 180.439 13.0111 180.523 13.1934C180.615 13.3757 180.729 13.4961 180.865 13.5547C181.002 13.6133 181.148 13.6426 181.305 13.6426C181.422 13.6426 181.552 13.6296 181.695 13.6035C181.839 13.571 181.936 13.5449 181.988 13.5254L181.979 15C181.861 15.0456 181.705 15.0879 181.51 15.127C181.314 15.1725 181.067 15.1953 180.768 15.1953C180.396 15.1953 180.051 15.1074 179.732 14.9316C179.413 14.7559 179.156 14.4629 178.961 14.0527C178.766 13.6361 178.668 13.0762 178.668 12.373V1.86523ZM185.904 4.43359V15H184.186V4.43359H185.904ZM184.088 1.63086C184.088 1.33789 184.169 1.09049 184.332 0.888672C184.495 0.686849 184.739 0.585938 185.064 0.585938C185.39 0.585938 185.634 0.686849 185.797 0.888672C185.966 1.09049 186.051 1.33789 186.051 1.63086C186.051 1.91081 185.966 2.15169 185.797 2.35352C185.634 2.54883 185.39 2.64648 185.064 2.64648C184.739 2.64648 184.495 2.54883 184.332 2.35352C184.169 2.15169 184.088 1.91081 184.088 1.63086ZM188.277 10.2246V9.21875C188.277 8.39844 188.382 7.67904 188.59 7.06055C188.798 6.43555 189.088 5.91471 189.459 5.49805C189.83 5.08138 190.263 4.76888 190.758 4.56055C191.253 4.3457 191.783 4.23828 192.35 4.23828C192.929 4.23828 193.466 4.3457 193.961 4.56055C194.456 4.76888 194.889 5.08138 195.26 5.49805C195.637 5.91471 195.93 6.43555 196.139 7.06055C196.347 7.67904 196.451 8.39844 196.451 9.21875V10.2246C196.451 11.0449 196.347 11.7676 196.139 12.3926C195.93 13.0111 195.641 13.5286 195.27 13.9453C194.898 14.362 194.465 14.6745 193.971 14.8828C193.476 15.0911 192.942 15.1953 192.369 15.1953C191.796 15.1953 191.262 15.0911 190.768 14.8828C190.273 14.6745 189.837 14.362 189.459 13.9453C189.088 13.5286 188.798 13.0111 188.59 12.3926C188.382 11.7676 188.277 11.0449 188.277 10.2246ZM190.006 9.21875V10.2246C190.006 10.804 190.064 11.3118 190.182 11.748C190.299 12.1842 190.465 12.5488 190.68 12.8418C190.895 13.1348 191.145 13.3561 191.432 13.5059C191.718 13.6491 192.031 13.7207 192.369 13.7207C192.76 13.7207 193.102 13.6491 193.395 13.5059C193.694 13.3561 193.941 13.1348 194.137 12.8418C194.332 12.5488 194.479 12.1842 194.576 11.748C194.674 11.3118 194.723 10.804 194.723 10.2246V9.21875C194.723 8.63932 194.664 8.13477 194.547 7.70508C194.43 7.26888 194.264 6.9043 194.049 6.61133C193.834 6.31185 193.58 6.09049 193.287 5.94727C193.001 5.79753 192.688 5.72266 192.35 5.72266C192.018 5.72266 191.708 5.79753 191.422 5.94727C191.135 6.09049 190.885 6.31185 190.67 6.61133C190.462 6.9043 190.299 7.26888 190.182 7.70508C190.064 8.13477 190.006 8.63932 190.006 9.21875ZM200.406 6.68945V15H198.678V4.43359H200.309L200.406 6.68945ZM199.986 9.31641L199.283 9.28711C199.277 8.56445 199.358 7.89714 199.527 7.28516C199.703 6.66667 199.951 6.12956 200.27 5.67383C200.595 5.2181 200.982 4.86654 201.432 4.61914C201.881 4.36523 202.379 4.23828 202.926 4.23828C203.355 4.23828 203.746 4.3099 204.098 4.45312C204.449 4.58984 204.749 4.8112 204.996 5.11719C205.243 5.42318 205.432 5.82031 205.562 6.30859C205.699 6.79036 205.768 7.37956 205.768 8.07617V15H204.039V8.05664C204.039 7.50326 203.977 7.06055 203.854 6.72852C203.736 6.38997 203.554 6.14583 203.307 5.99609C203.066 5.83984 202.76 5.76172 202.389 5.76172C202.05 5.76172 201.734 5.85612 201.441 6.04492C201.148 6.23372 200.891 6.49414 200.67 6.82617C200.455 7.1582 200.286 7.53906 200.162 7.96875C200.045 8.39193 199.986 8.84115 199.986 9.31641Z" fill="white"/>
</svg>
