<svg width="117" height="33" viewBox="0 0 117 33" fill="none" xmlns="http://www.w3.org/2000/svg">
<path d="M0.696601 23.6546C0.764752 23.6035 0.875499 23.5183 1.02884 23.3991C1.16514 23.2798 1.33552 23.0583 1.53998 22.7346C1.72739 22.4109 1.94037 21.9423 2.1789 21.329C2.41743 20.7156 2.66448 19.8807 2.92005 18.8244C3.05635 18.2621 3.23525 17.5465 3.45674 16.6776C3.67823 15.8087 3.91676 14.8801 4.17233 13.8919C4.44494 12.9037 4.71754 11.89 4.99015 10.8506C5.26276 9.7943 5.52684 8.79758 5.78241 7.8605C6.03798 6.90638 6.26799 6.04596 6.47245 5.27926C6.6769 4.51255 6.83876 3.91623 6.95803 3.49028C6.63431 3.69473 6.31911 3.92474 6.01242 4.18031C5.73982 4.40181 5.45017 4.65737 5.14349 4.94702C4.83681 5.21962 4.53865 5.50927 4.249 5.81595C4.02751 5.62853 3.85713 5.42408 3.73787 5.20259C3.66971 5.10036 3.61008 4.98961 3.55897 4.87035C3.45674 4.61478 3.40563 4.35069 3.40563 4.07809C3.40563 3.80548 3.6186 3.52435 4.04455 3.23471C4.26604 3.08137 4.59828 2.85988 5.04126 2.57023C5.50129 2.28059 6.06354 1.99946 6.72802 1.72686C7.39249 1.43721 8.16772 1.19016 9.05369 0.985707C9.93966 0.781252 10.9193 0.679025 11.9927 0.679025C13.0661 0.679025 13.9265 0.891998 14.574 1.31795C15.2384 1.74389 15.7411 2.26355 16.0818 2.87691C16.4396 3.49028 16.6696 4.13772 16.7719 4.81923C16.8741 5.50075 16.8996 6.09708 16.8485 6.60821C16.7463 7.56234 16.4396 8.55905 15.9285 9.59836C15.4173 10.6377 14.7103 11.6003 13.8073 12.4863C12.9043 13.3552 11.8053 14.0964 10.5104 14.7097C9.21555 15.3231 7.73325 15.6724 6.06354 15.7576C5.92724 16.405 5.79093 17.0695 5.65463 17.751C5.51833 18.4325 5.3735 19.1055 5.22016 19.77C5.06682 20.4174 4.90496 21.0223 4.73458 21.5845C4.58124 22.1638 4.41938 22.6579 4.249 23.0668C4.07862 23.5098 3.85713 23.8591 3.58452 24.1147C3.31192 24.3873 2.87745 24.5236 2.28113 24.5236C1.97444 24.5236 1.69332 24.4469 1.43775 24.2936C1.16514 24.1402 0.918094 23.9272 0.696601 23.6546ZM6.75357 12.0007C6.70246 12.2733 6.63431 12.6311 6.54912 13.0741C6.48097 13.5 6.39578 13.9856 6.29355 14.5308C6.75357 14.4627 7.26471 14.3434 7.82696 14.173C8.38921 13.9856 8.95146 13.7386 9.51371 13.4319C10.076 13.1252 10.6212 12.7589 11.1494 12.3329C11.6946 11.89 12.1887 11.3873 12.6316 10.8251C13.0746 10.2458 13.4409 9.59836 13.7306 8.88277C14.0373 8.15014 14.2332 7.34084 14.3184 6.45487C14.4036 5.60298 14.3525 4.8959 14.1651 4.33365C13.9947 3.75437 13.7391 3.29434 13.3984 2.95358C13.0576 2.59579 12.6657 2.34874 12.2227 2.21244C11.7798 2.05909 11.3368 1.98242 10.8938 1.98242C10.4678 1.98242 10.0504 2.04206 9.6415 2.16132C9.23259 2.28059 8.82368 2.43393 8.41477 2.62134C8.46588 2.63838 8.52551 2.68098 8.59367 2.74913C8.69589 2.85136 8.77256 2.99618 8.82368 3.1836C8.41477 4.83627 8.07401 6.21634 7.8014 7.3238C7.54584 8.43127 7.34138 9.33428 7.18804 10.0328C7.00062 10.8506 6.8558 11.5066 6.75357 12.0007ZM16.0818 19.5911C16.8315 16.4391 17.4278 13.909 17.8708 12.0007C18.3308 10.0925 18.6801 8.63572 18.9186 7.63049C19.1912 6.43783 19.3787 5.6115 19.4809 5.15147C19.532 4.82775 19.5746 4.51255 19.6087 4.20587C19.6427 3.93326 19.6598 3.65214 19.6598 3.36249C19.6598 3.07285 19.6342 2.80876 19.5831 2.57023C19.7194 2.48504 19.8642 2.41689 20.0176 2.36578C20.188 2.31466 20.3498 2.27207 20.5032 2.23799C20.6906 2.18688 20.878 2.14428 21.0654 2.11021C21.2528 2.07613 21.4232 2.05909 21.5765 2.05909C21.7128 2.05909 21.8406 2.07613 21.9599 2.11021C22.0792 2.12725 22.1558 2.17836 22.1899 2.26355C22.2921 2.34874 22.3347 2.51912 22.3177 2.77469C22.3177 3.03025 22.3007 3.29434 22.2666 3.56695C22.1984 3.89067 22.1218 4.23995 22.0366 4.61478C21.8321 5.34741 21.551 6.40376 21.1932 7.78383C20.8865 8.95944 20.4691 10.561 19.9409 12.5885C19.4298 14.616 18.7823 17.1717 17.9986 20.2556C17.9134 20.3408 17.8112 20.4004 17.6919 20.4345C17.5726 20.4685 17.4619 20.4856 17.3597 20.4856C17.2404 20.4856 17.1126 20.4771 16.9763 20.46C16.857 20.4259 16.7378 20.3748 16.6185 20.3067C16.5163 20.2385 16.4141 20.1448 16.3118 20.0256C16.2096 19.9233 16.1329 19.7785 16.0818 19.5911ZM35.3006 14.9142C35.062 15.2549 34.7554 15.6809 34.3805 16.192C34.0057 16.6861 33.6138 17.1887 33.2049 17.6999C32.813 18.194 32.4212 18.654 32.0293 19.08C31.6545 19.4889 31.3393 19.7785 31.0837 19.9489C30.9133 20.0511 30.7174 20.1363 30.4959 20.2045C30.2744 20.2726 30.0444 20.3152 29.8058 20.3322C29.5844 20.3493 29.3714 20.3322 29.1669 20.2811C28.9625 20.247 28.7836 20.1789 28.6302 20.0767C28.4769 19.9574 28.3491 19.787 28.2469 19.5655C28.1617 19.3781 28.0765 19.1311 27.9913 18.8244C27.9232 18.5177 27.8976 18.1344 27.9146 17.6743C27.5057 18.3558 27.0542 18.884 26.5601 19.2589C26.066 19.6166 25.5975 19.8807 25.1545 20.0511C24.6434 20.2385 24.1322 20.3493 23.6211 20.3834C23.3826 20.3834 23.127 20.2982 22.8544 20.1278C22.5818 19.9744 22.3518 19.7274 22.1644 19.3866C21.9769 19.0288 21.8577 18.5773 21.8066 18.0321C21.7554 17.4699 21.8236 16.8054 22.011 16.0387C22.2495 14.9994 22.6244 14.0538 23.1355 13.2019C23.6637 12.35 24.2345 11.6259 24.8478 11.0295C25.4612 10.4162 26.066 9.95616 26.6624 9.64948C27.2587 9.3428 27.7528 9.20649 28.1447 9.24057C28.6047 9.32576 28.9795 9.46206 29.2692 9.64948C29.5077 9.81986 29.661 10.0754 29.7292 10.4162C29.8144 10.7399 29.6781 11.1744 29.3203 11.7196C29.5588 11.6685 29.7547 11.6344 29.9081 11.6174C30.0785 11.6003 30.2062 11.5918 30.2914 11.5918C30.3937 11.5918 30.4618 11.6003 30.4959 11.6174C30.5129 11.6514 30.5214 11.7281 30.5214 11.8474C30.5214 11.9496 30.4959 12.1455 30.4448 12.4352C30.3937 12.7248 30.317 13.1167 30.2148 13.6108C30.1125 14.1049 29.9762 14.7438 29.8058 15.5276C29.7718 15.6809 29.7377 15.8257 29.7036 15.962C29.6866 16.0813 29.661 16.2091 29.6269 16.3454C29.6099 16.4646 29.5844 16.6095 29.5503 16.7798C29.5162 16.9502 29.4736 17.1632 29.4225 17.4188C29.4055 17.5721 29.3969 17.7425 29.3969 17.9299C29.414 18.1003 29.4481 18.2621 29.4992 18.4155C29.5503 18.5688 29.6269 18.6966 29.7292 18.7988C29.8484 18.884 30.0103 18.9266 30.2148 18.9266C30.3851 18.9266 30.6066 18.8244 30.8792 18.6199C31.1518 18.3984 31.4415 18.1258 31.7482 17.8021C32.0548 17.4614 32.3701 17.095 32.6938 16.7032C33.0345 16.2943 33.3497 15.9024 33.6394 15.5276C33.929 15.1527 34.1846 14.8205 34.4061 14.5308C34.6446 14.2412 34.815 14.0282 34.9172 13.8919C35.0535 13.7386 35.1898 13.6534 35.3261 13.6363C35.4624 13.6023 35.5647 13.6363 35.6328 13.7386C35.701 13.8408 35.7095 13.9941 35.6584 14.1986C35.6243 14.4031 35.505 14.6416 35.3006 14.9142ZM27.8124 16.0387C27.8976 15.6979 27.9998 15.2975 28.1191 14.8375C28.2384 14.3775 28.3406 13.9345 28.4258 13.5086C28.511 13.0826 28.5706 12.7333 28.6047 12.4607C28.6558 12.1711 28.6473 12.0348 28.5791 12.0518C28.4939 12.0689 28.4002 12.0944 28.298 12.1285C28.2128 12.1626 28.1021 12.1881 27.9658 12.2052C27.8295 12.2222 27.6931 12.2478 27.5568 12.2818C27.6931 12.0092 27.7698 11.7877 27.7869 11.6174C27.8209 11.4299 27.8295 11.2851 27.8124 11.1829C27.7954 11.0636 27.7613 10.9699 27.7102 10.9018C27.5228 10.7484 27.1905 10.8762 26.7135 11.2851C26.2534 11.677 25.7168 12.4096 25.1034 13.483C24.8478 13.926 24.6434 14.4031 24.49 14.9142C24.3367 15.4083 24.2259 15.8768 24.1578 16.3198C24.1067 16.7628 24.0982 17.1547 24.1322 17.4954C24.1663 17.8191 24.2345 18.0321 24.3367 18.1344C24.5241 18.3218 24.7371 18.4155 24.9756 18.4155C25.2141 18.3984 25.4527 18.3303 25.6912 18.211C25.9468 18.0747 26.1938 17.9043 26.4323 17.6999C26.6879 17.4954 26.9094 17.2825 27.0968 17.061C27.3013 16.8395 27.4631 16.635 27.5824 16.4476C27.7187 16.2602 27.7954 16.1239 27.8124 16.0387ZM40.3097 10.5951C40.5312 10.4247 40.7442 10.2969 40.9486 10.2117C41.1701 10.1095 41.3661 10.0413 41.5364 10.0073C41.7239 9.95616 41.9113 9.93912 42.0987 9.95616C42.5587 9.99024 42.8398 10.1351 42.9421 10.3906C43.0613 10.6462 43.0784 11.0551 42.9932 11.6174C42.9421 11.907 42.8398 12.2733 42.6865 12.7163C42.5332 13.1593 42.3543 13.7045 42.1498 14.3519C41.9453 14.9823 41.7239 15.7064 41.4853 16.5243C41.2638 17.3421 41.0509 18.2621 40.8464 19.2844C40.642 20.1193 40.4205 21.0819 40.1819 22.1723C39.9775 23.1265 39.7304 24.2765 39.4408 25.6225C39.1682 26.9685 38.87 28.5104 38.5463 30.2483C38.4611 30.6742 38.2737 30.9213 37.984 30.9894C37.7114 31.0576 37.4218 31.0235 37.1151 30.8872C36.9958 30.8191 36.8851 30.7424 36.7829 30.6572C36.6977 30.572 36.604 30.4698 36.5017 30.3505C36.3995 30.2483 36.3143 30.1035 36.2462 29.9161C36.638 28.4849 36.9788 27.1815 37.2684 26.0059C37.5751 24.8302 37.8477 23.808 38.0863 22.939C38.3418 21.9338 38.5804 21.0308 38.8019 20.23C38.887 19.8722 38.9637 19.5229 39.0319 19.1822C39.1171 18.8244 39.2022 18.4751 39.2874 18.1344C39.0659 18.4921 38.8274 18.8329 38.5718 19.1566C38.3163 19.4803 38.0352 19.7615 37.7285 20C37.4218 20.2385 37.0895 20.4174 36.7318 20.5367C36.391 20.673 36.0332 20.7156 35.6584 20.6645C34.7383 20.5452 34.0824 20.2045 33.6905 19.6422C33.3157 19.08 33.1538 18.3473 33.2049 17.4443C33.2219 17.0865 33.2731 16.6946 33.3582 16.2687C33.4434 15.8428 33.5371 15.4338 33.6394 15.042C33.7416 14.6501 33.8353 14.3008 33.9205 13.9941C34.0227 13.6704 34.0994 13.4404 34.1505 13.3041C34.355 12.6567 34.4998 12.1029 34.585 11.6429C34.6872 11.1829 34.6191 10.7995 34.3805 10.4929C34.6191 10.3395 34.8405 10.2373 35.045 10.1862C35.2665 10.118 35.4624 10.0669 35.6328 10.0328C35.8202 10.0158 36.0076 10.0158 36.1951 10.0328C36.6551 10.101 36.9192 10.2714 36.9873 10.544C37.0725 10.8166 37.047 11.2255 36.9107 11.7707C36.8425 12.0603 36.7318 12.4352 36.5784 12.8952C36.4251 13.3382 36.2632 13.7982 36.0928 14.2753C35.9225 14.7523 35.7691 15.1953 35.6328 15.6042C35.4965 15.9961 35.4198 16.2772 35.4028 16.4476C35.2495 17.2143 35.2409 17.8106 35.3772 18.2366C35.5135 18.6455 35.8117 18.8499 36.2717 18.8499C36.4932 18.8499 36.7403 18.7562 37.0129 18.5688C37.2855 18.3644 37.5581 18.1003 37.8307 17.7766C38.1203 17.4528 38.4015 17.0865 38.6741 16.6776C38.9467 16.2517 39.1937 15.8257 39.4152 15.3998C39.6538 14.9738 39.8582 14.5564 40.0286 14.1475C40.216 13.7386 40.3523 13.3723 40.4375 13.0485C40.5568 12.4181 40.6334 11.924 40.6675 11.5662C40.7016 11.2084 40.5823 10.8847 40.3097 10.5951ZM50.9669 23.6546C50.8817 24.0635 50.771 24.5747 50.6347 25.188C50.5154 25.8014 50.3706 26.4488 50.2002 27.1304C50.0469 27.8119 49.8595 28.4849 49.638 29.1494C49.4335 29.8309 49.2035 30.4357 48.9479 30.9639C48.6924 31.5091 48.4112 31.9521 48.1046 32.2928C47.7979 32.6336 47.4571 32.804 47.0823 32.804C46.52 32.804 46.0344 32.6336 45.6255 32.2928C45.2337 31.9691 44.9014 31.5517 44.6288 31.0406C44.3562 30.5465 44.1603 30.0098 44.041 29.4305C43.9047 28.8512 43.8366 28.3145 43.8366 27.8204C43.8366 27.1389 43.8962 26.5681 44.0155 26.1081C44.1347 25.6651 44.3392 25.2392 44.6288 24.8302C44.9355 24.4213 45.3444 23.9869 45.8555 23.5268C46.3667 23.0668 47.0226 22.4961 47.8234 21.8145C48.2153 21.4738 48.5901 21.1501 48.9479 20.8434C49.3057 20.5367 49.6465 20.2556 49.9702 20C50.0554 19.6592 50.1321 19.344 50.2002 19.0544C50.2854 18.7477 50.3536 18.4751 50.4047 18.2366C49.9617 18.8329 49.425 19.3355 48.7946 19.7444C48.1812 20.1533 47.4741 20.3578 46.6734 20.3578C45.9407 20.3578 45.3444 20.0341 44.8844 19.3866C44.4414 18.7222 44.2199 17.751 44.2199 16.4732C44.2199 15.8428 44.3392 15.1186 44.5777 14.3008C44.8162 13.483 45.157 12.7163 45.6 12.0007C46.043 11.2851 46.5882 10.6803 47.2356 10.1862C47.8831 9.69207 48.6072 9.44502 49.4079 9.44502C49.7828 9.44502 50.1065 9.53873 50.3791 9.72615C50.6517 9.91356 50.8817 10.1521 51.0691 10.4417C51.2566 10.7143 51.4014 11.0125 51.5036 11.3362C51.6058 11.6429 51.6825 11.9326 51.7336 12.2052C51.7677 12.1029 51.7933 12.0007 51.8103 11.8985C51.8273 11.7792 51.8529 11.677 51.887 11.5918C52.0573 11.0125 52.2448 10.6206 52.4492 10.4162C52.6707 10.1947 52.9944 10.0839 53.4204 10.0839C53.6589 10.0839 53.8548 10.1265 54.0082 10.2117C54.1786 10.2969 54.2637 10.3736 54.2637 10.4417C54.1786 10.6292 54.1104 10.774 54.0593 10.8762C54.0082 10.9784 53.9571 11.0892 53.906 11.2084C53.8548 11.3107 53.8037 11.447 53.7526 11.6174C53.7015 11.7877 53.6333 12.0348 53.5482 12.3585C53.5141 12.4778 53.4459 12.7589 53.3437 13.2019C53.2585 13.6278 53.1392 14.139 52.9859 14.7353C52.8496 15.3316 52.6963 15.9876 52.5259 16.7032C52.3725 17.4188 52.2192 18.1173 52.0659 18.7988C52.5429 18.5262 53.037 18.194 53.5482 17.8021C54.0593 17.4102 54.5449 17.0098 55.0049 16.6009C55.4649 16.192 55.8738 15.8087 56.2316 15.4509C56.5894 15.076 56.8535 14.7694 57.0239 14.5308C57.1602 14.3264 57.3135 14.1816 57.4839 14.0964C57.6543 14.0112 57.7991 13.9856 57.9184 14.0197C58.0547 14.0367 58.1314 14.1134 58.1484 14.2497C58.1825 14.369 58.1314 14.5394 57.995 14.7608C57.6032 15.3912 57.1261 16.0046 56.5639 16.6009C56.0016 17.1802 55.4223 17.7254 54.826 18.2366C54.2467 18.7307 53.6759 19.1737 53.1137 19.5655C52.5685 19.9404 52.0999 20.247 51.7081 20.4856C51.5377 21.2523 51.3929 21.8742 51.2736 22.3512C51.1543 22.8283 51.0521 23.2628 50.9669 23.6546ZM47.7468 18.6199C48.1046 18.6199 48.4368 18.5262 48.7435 18.3388C49.0672 18.1514 49.3568 17.9384 49.6124 17.6999C49.868 17.4443 50.0809 17.1887 50.2513 16.9332C50.4217 16.6776 50.5495 16.4732 50.6347 16.3198C50.7028 16.1665 50.7795 15.962 50.8647 15.7064C50.9669 15.4509 51.0436 15.2038 51.0947 14.9653C51.1458 14.7268 51.1629 14.5138 51.1458 14.3264C51.1458 14.139 51.0862 14.0367 50.9669 14.0197C50.8647 14.0027 50.7795 13.9345 50.7113 13.8152C50.6602 13.696 50.6176 13.5597 50.5836 13.4063C50.5495 13.253 50.5239 13.0997 50.5069 12.9463C50.5069 12.793 50.4984 12.6567 50.4813 12.5374C50.3961 11.9411 50.2513 11.5066 50.0469 11.234C49.8424 10.9614 49.6124 10.8251 49.3568 10.8251C48.9309 10.8251 48.522 10.9955 48.1301 11.3362C47.7553 11.677 47.4145 12.12 47.1078 12.6652C46.8182 13.1934 46.5882 13.7812 46.4178 14.4286C46.2474 15.059 46.1622 15.6639 46.1622 16.2431C46.1622 16.9587 46.2645 17.538 46.4689 17.981C46.6734 18.407 47.0993 18.6199 47.7468 18.6199ZM46.5711 30.4783C46.9119 30.4783 47.1845 30.2227 47.389 29.7116C47.6105 29.2175 47.8405 28.536 48.079 27.6671C48.1301 27.4626 48.1983 27.1644 48.2834 26.7726C48.3857 26.3977 48.4964 25.9633 48.6157 25.4692C48.752 24.9751 48.8883 24.4384 49.0246 23.8591C49.1609 23.2968 49.3057 22.7261 49.4591 22.1468C49.3228 22.266 49.1779 22.3853 49.0246 22.5046C48.8883 22.6409 48.7435 22.7942 48.5901 22.9646C48.2153 23.3224 47.849 23.6631 47.4912 23.9869C47.1504 24.3276 46.8437 24.6769 46.5711 25.0347C46.2985 25.4095 46.077 25.8099 45.9067 26.2359C45.7533 26.6618 45.6766 27.1559 45.6766 27.7182C45.6766 28.2804 45.6937 28.7404 45.7278 29.0982C45.7789 29.456 45.8385 29.7372 45.9067 29.9416C45.9919 30.1461 46.0856 30.2824 46.1878 30.3505C46.3071 30.4357 46.4348 30.4783 46.5711 30.4783ZM55.286 19.8722C55.1668 20.0596 55.039 20.1789 54.9027 20.23C54.7493 20.2982 54.6215 20.3067 54.5193 20.2556C54.4001 20.2215 54.3234 20.1363 54.2893 20C54.2552 19.8637 54.2893 19.6933 54.3915 19.4889C54.4426 19.3866 54.5619 19.1566 54.7493 18.7988C54.9197 18.441 55.1327 18.0151 55.3883 17.521C55.6268 17.0098 55.8909 16.4646 56.1805 15.8853C56.4702 15.289 56.7428 14.7268 56.9983 14.1986C57.2709 13.6704 57.518 13.2019 57.7395 12.793C57.961 12.367 58.1228 12.0603 58.2251 11.8729C58.0376 11.7025 57.9099 11.5833 57.8417 11.5151C57.7736 11.4299 57.7224 11.2596 57.6884 11.004C57.6543 10.7825 57.7054 10.4929 57.8417 10.1351C57.978 9.77726 58.1569 9.4365 58.3784 9.11278C58.5999 8.77203 58.8469 8.48238 59.1195 8.24385C59.3922 8.00532 59.6562 7.88606 59.9118 7.88606C60.3889 7.88606 60.7211 8.0394 60.9085 8.34608C61.113 8.65276 61.2322 8.96796 61.2663 9.29168C61.3004 9.51317 61.2834 9.7943 61.2152 10.1351C61.1471 10.4758 61.0193 10.7825 60.8319 11.0551C60.883 11.0892 60.9511 11.1318 61.0363 11.1829C61.1215 11.217 61.2578 11.234 61.4452 11.234C61.7178 11.234 61.9052 11.217 62.0075 11.1829C62.1267 11.1488 62.3056 11.1318 62.5442 11.1318C62.8338 11.1318 63.0723 11.2084 63.2598 11.3618C63.4472 11.4981 63.6005 11.677 63.7198 11.8985C63.839 12.1029 63.9242 12.3329 63.9754 12.5885C64.0435 12.827 64.0861 13.0485 64.1031 13.253C64.1542 13.6789 64.0435 14.1219 63.7709 14.5819C63.4983 15.042 63.1661 15.5446 62.7742 16.0898C62.5356 16.4306 62.2971 16.8139 62.0586 17.2399C61.8201 17.6658 61.7178 18.0492 61.7519 18.3899C61.786 18.6114 61.8456 18.7903 61.9308 18.9266C62.016 19.0629 62.2545 19.1311 62.6464 19.1311C62.936 19.1311 63.2512 19.0288 63.592 18.8244C63.9498 18.6029 64.3076 18.3303 64.6654 18.0066C65.0402 17.6658 65.4065 17.2995 65.7643 16.9076C66.1221 16.4987 66.4544 16.1068 66.761 15.732C67.0677 15.3401 67.3233 14.9909 67.5278 14.6842C67.7492 14.3775 67.9111 14.156 68.0133 14.0197C68.0985 13.8834 68.2093 13.7897 68.3456 13.7386C68.4819 13.6875 68.6011 13.6875 68.7034 13.7386C68.8056 13.7897 68.8652 13.8919 68.8823 14.0453C68.9163 14.1986 68.8567 14.4031 68.7034 14.6586C68.6011 14.829 68.4222 15.1016 68.1667 15.4764C67.9281 15.8513 67.63 16.2687 67.2722 16.7287C66.9314 17.1887 66.5481 17.6658 66.1221 18.1599C65.6962 18.637 65.2447 19.08 64.7676 19.4889C64.3076 19.8807 63.839 20.2045 63.362 20.46C62.902 20.7156 62.459 20.8434 62.033 20.8434C61.59 20.8434 61.2237 20.7582 60.9341 20.5878C60.6444 20.4174 60.4059 20.213 60.2185 19.9744C60.0481 19.7189 59.9203 19.4463 59.8351 19.1566C59.767 18.8499 59.7414 18.5688 59.7585 18.3132C59.7755 18.1088 59.8266 17.8958 59.9118 17.6743C60.014 17.4358 60.1248 17.1973 60.2441 16.9587C60.3804 16.7032 60.5167 16.4561 60.653 16.2176C60.8063 15.962 60.9426 15.715 61.0619 15.4764C61.3515 14.9823 61.5815 14.5649 61.7519 14.2242C61.9393 13.8664 62.033 13.5682 62.033 13.3297C62.033 13.1763 61.999 13.04 61.9308 12.9208C61.8627 12.8015 61.7519 12.7419 61.5986 12.7419C61.4963 12.7419 61.4197 12.7504 61.3686 12.7674C61.3345 12.7674 61.2919 12.7674 61.2408 12.7674C61.2067 12.7674 61.1471 12.7759 61.0619 12.793C60.9937 12.793 60.883 12.793 60.7296 12.793C60.5081 12.793 60.3207 12.7589 60.1674 12.6907C60.014 12.6226 59.8692 12.5715 59.7329 12.5374C59.6648 12.6567 59.5114 12.9122 59.2729 13.3041C59.0344 13.696 58.7532 14.156 58.4295 14.6842C58.1228 15.2124 57.7906 15.7661 57.4328 16.3454C57.092 16.9247 56.7683 17.4699 56.4616 17.981C56.155 18.4751 55.8994 18.9011 55.6949 19.2589C55.4734 19.5996 55.3371 19.8041 55.286 19.8722ZM74.4537 15.9365C74.2833 16.5839 74.0533 17.1887 73.7636 17.751C73.474 18.3132 73.1247 18.7988 72.7158 19.2077C72.3239 19.6166 71.8724 19.9318 71.3613 20.1533C70.8672 20.3919 70.322 20.5111 69.7256 20.5111C69.0271 20.5111 68.4734 20.3578 68.0644 20.0511C67.6726 19.7615 67.3744 19.3952 67.17 18.9522C66.9825 18.5092 66.8718 18.0236 66.8377 17.4954C66.7866 16.9673 66.761 16.4732 66.761 16.0131C66.761 15.6894 66.8036 15.3316 66.8888 14.9397C66.957 14.5479 67.0592 14.1475 67.1955 13.7386C67.3318 13.3297 67.5022 12.9208 67.7067 12.5118C67.9281 12.1029 68.1837 11.7281 68.4734 11.3873C68.5756 11.0977 68.7289 10.8421 68.9334 10.6206C69.1549 10.3991 69.4019 10.2202 69.6745 10.0839C69.9642 9.9306 70.2709 9.81986 70.5946 9.7517C70.9183 9.66652 71.2335 9.62392 71.5402 9.62392C71.5913 9.62392 71.6339 9.63244 71.668 9.64948C71.7191 9.66652 71.7702 9.68355 71.8213 9.70059C72.0428 9.71763 72.3154 9.80282 72.6391 9.95616C72.9799 10.1095 73.3036 10.3395 73.6103 10.6462C73.934 10.9529 74.2066 11.3447 74.4281 11.8218C74.6496 12.2818 74.7603 12.8441 74.7603 13.5086C74.7603 13.6449 74.7518 13.8152 74.7348 14.0197C74.7177 14.2071 74.7007 14.369 74.6837 14.5053C75.0755 14.3519 75.4845 14.1645 75.9104 13.943C76.3363 13.7215 76.7453 13.4915 77.1371 13.253C77.546 12.9974 77.9209 12.7419 78.2616 12.4863C78.6024 12.2307 78.875 12.0007 79.0794 11.7963C79.2498 11.6429 79.3946 11.5577 79.5139 11.5407C79.6332 11.5236 79.7184 11.5577 79.7695 11.6429C79.8206 11.7281 79.8291 11.8474 79.795 12.0007C79.761 12.154 79.6673 12.3244 79.5139 12.5118C79.4287 12.6141 79.2072 12.8185 78.8494 13.1252C78.5087 13.4319 78.0998 13.7641 77.6227 14.1219C77.1456 14.4797 76.626 14.829 76.0637 15.1698C75.5015 15.5105 74.9648 15.7661 74.4537 15.9365ZM70.1346 12.0518C70.0834 12.2052 70.0579 12.367 70.0579 12.5374C70.0579 12.81 70.0749 13.0997 70.109 13.4063C70.1431 13.696 70.2283 13.9601 70.3646 14.1986C70.5009 14.4371 70.7138 14.6416 71.0035 14.812C71.3102 14.9653 71.7276 15.042 72.2558 15.042C72.341 15.042 72.4261 15.042 72.5113 15.042C72.5965 15.0249 72.6817 15.0079 72.7669 14.9909C72.818 14.7694 72.8606 14.5734 72.8947 14.4031C72.9458 14.2156 72.9714 14.0538 72.9714 13.9175C73.0054 13.5938 73.0054 13.2615 72.9714 12.9208C72.9373 12.58 72.8691 12.2733 72.7669 12.0007C72.6817 11.7111 72.5625 11.4811 72.4091 11.3107C72.2728 11.1233 72.1024 11.0295 71.898 11.0295C71.5743 11.0295 71.2591 11.1233 70.9524 11.3107C70.6627 11.4811 70.3901 11.7281 70.1346 12.0518ZM68.4989 16.5498C68.4989 16.8565 68.516 17.1632 68.55 17.4699C68.5841 17.7595 68.6523 18.0236 68.7545 18.2621C68.8567 18.4836 68.993 18.671 69.1634 18.8244C69.3338 18.9607 69.5553 19.0288 69.8279 19.0288C70.1346 19.0288 70.4157 18.9607 70.6712 18.8244C70.9268 18.671 71.1568 18.4836 71.3613 18.2621C71.5657 18.0236 71.7446 17.7595 71.898 17.4699C72.0684 17.1632 72.2132 16.848 72.3324 16.5243C72.2132 16.5413 72.0939 16.5583 71.9746 16.5754C71.8724 16.5754 71.7532 16.5754 71.6168 16.5754C70.9694 16.5754 70.4072 16.388 69.9301 16.0131C69.4701 15.6213 69.1123 15.1272 68.8567 14.5308C68.7545 14.8886 68.6693 15.2379 68.6011 15.5787C68.533 15.9194 68.4989 16.2431 68.4989 16.5498ZM80.3573 20.4089C79.7098 20.4089 79.1817 20.3067 78.7728 20.1022C78.3639 19.8978 78.0401 19.6507 77.8016 19.3611C77.5801 19.0544 77.4183 18.7307 77.316 18.3899C77.2308 18.0321 77.1882 17.7084 77.1882 17.4188C77.1882 16.9076 77.2308 16.3709 77.316 15.8087C77.4012 15.2294 77.5034 14.7012 77.6227 14.2242C77.742 13.7301 77.8442 13.3126 77.9294 12.9719C78.0316 12.6311 78.0998 12.4181 78.1338 12.3329C78.2872 11.8388 78.4831 11.4129 78.7217 11.0551C78.9772 10.6803 79.3265 10.4247 79.7695 10.2884C79.9399 10.2543 80.1188 10.2202 80.3062 10.1862C80.4595 10.1691 80.6129 10.1606 80.7662 10.1606C80.9366 10.1606 81.0899 10.1862 81.2262 10.2373C80.7662 11.4129 80.3999 12.3926 80.1273 13.1763C79.8717 13.9601 79.6758 14.599 79.5395 15.0931C79.3861 15.6553 79.2924 16.1068 79.2583 16.4476C79.1732 17.2143 79.2413 17.7936 79.4628 18.1855C79.6843 18.5773 80.1358 18.7733 80.8173 18.7733C81.2603 18.7733 81.6862 18.6114 82.0952 18.2877C82.5041 17.9469 82.8789 17.5125 83.2197 16.9843C83.1685 16.7117 83.143 16.4306 83.143 16.1409C83.143 15.5957 83.1856 15.0675 83.2708 14.5564C83.373 14.0282 83.4837 13.5426 83.603 13.0997C83.7393 12.6396 83.8756 12.2307 84.0119 11.8729C84.1653 11.5151 84.293 11.234 84.3953 11.0295C84.5827 10.6206 84.7531 10.3736 84.9064 10.2884C85.0597 10.1862 85.3068 10.1265 85.6476 10.1095C85.7839 10.0925 85.8946 10.0925 85.9798 10.1095C86.082 10.1095 86.1672 10.118 86.2354 10.1351C86.4398 10.1862 86.542 10.2884 86.542 10.4417C86.542 10.7143 86.525 11.1233 86.4909 11.6685C86.4569 12.2137 86.3546 12.7759 86.1842 13.3552C86.065 13.8323 85.9457 14.2412 85.8265 14.5819C85.7242 14.9057 85.622 15.1868 85.5198 15.4253C85.4175 15.6468 85.3153 15.8342 85.2131 15.9876C85.1109 16.1239 85.0172 16.2517 84.932 16.3709C84.966 16.8821 85.0086 17.291 85.0597 17.5977C85.1109 17.9043 85.1705 18.1429 85.2386 18.3132C85.3238 18.4666 85.4175 18.5773 85.5198 18.6455C85.639 18.6966 85.7668 18.7222 85.9031 18.7222C86.1417 18.7222 86.4228 18.6114 86.7465 18.3899C87.0702 18.1514 87.4025 17.8617 87.7432 17.521C88.101 17.1632 88.4503 16.7798 88.791 16.3709C89.1488 15.945 89.4726 15.5446 89.7622 15.1698C90.0519 14.7949 90.2989 14.4712 90.5034 14.1986C90.7078 13.909 90.8356 13.7301 90.8867 13.6619C91.006 13.5086 91.1167 13.4149 91.2189 13.3808C91.3382 13.3467 91.4319 13.3637 91.5001 13.4319C91.5682 13.483 91.6023 13.5767 91.6023 13.713C91.6193 13.8323 91.5853 13.9686 91.5001 14.1219C91.1593 14.7694 90.7334 15.4594 90.2222 16.192C89.7281 16.9076 89.1914 17.5721 88.6122 18.1855C88.0499 18.7988 87.4791 19.31 86.8998 19.7189C86.3206 20.1278 85.7753 20.3322 85.2642 20.3322C84.8042 20.3322 84.4379 20.1789 84.1653 19.8722C83.9097 19.5485 83.6882 19.0885 83.5008 18.4921C83.1089 19.1055 82.6489 19.5826 82.1207 19.9233C81.5925 20.247 81.0047 20.4089 80.3573 20.4089ZM97.0459 20.6389C96.654 20.6389 96.3133 20.5623 96.0236 20.4089C95.751 20.2726 95.5295 20.0852 95.3592 19.8467C95.1888 19.6081 95.078 19.3355 95.0269 19.0288C94.9758 18.7051 94.9928 18.3644 95.078 18.0066C95.1291 17.768 95.2143 17.4528 95.3336 17.061C95.4529 16.6521 95.5721 16.2176 95.6914 15.7576C95.8277 15.2805 95.947 14.812 96.0492 14.3519C96.1685 13.8749 96.2451 13.4489 96.2792 13.0741C96.3133 12.6822 96.2962 12.367 96.2281 12.1285C96.1599 11.8729 96.0151 11.7451 95.7936 11.7451C95.521 11.7451 95.2399 11.8388 94.9503 12.0263C94.6606 12.1966 94.3624 12.4352 94.0558 12.7419C93.7661 13.0485 93.468 13.4063 93.1613 13.8152C92.8716 14.2071 92.582 14.616 92.2923 15.042C92.139 15.6213 92.0112 16.1324 91.909 16.5754C91.8068 17.0013 91.713 17.3932 91.6279 17.751C91.5597 18.0918 91.4916 18.3984 91.4234 18.671C91.3553 18.9266 91.2956 19.1737 91.2445 19.4122C91.1934 19.5826 91.0401 19.753 90.7845 19.9233C90.5289 20.0767 90.2563 20.2045 89.9667 20.3067C89.677 20.4089 89.43 20.46 89.2255 20.46C89.004 20.46 88.9103 20.3834 88.9444 20.23C88.9614 20.1278 89.0211 19.8978 89.1233 19.54C89.2085 19.1822 89.3192 18.7648 89.4555 18.2877C89.5748 17.7936 89.7026 17.2739 89.8389 16.7287C89.9752 16.1835 90.103 15.6639 90.2222 15.1698C90.3074 14.7779 90.4011 14.3434 90.5034 13.8664C90.5885 13.4574 90.6908 12.9804 90.81 12.4352C90.9463 11.89 91.0997 11.2936 91.2701 10.6462C91.3893 10.544 91.5086 10.4673 91.6279 10.4162C91.7642 10.348 91.9005 10.2969 92.0368 10.2628C92.1731 10.2117 92.3179 10.1777 92.4712 10.1606C92.6075 10.1606 92.7438 10.1691 92.8801 10.1862C92.9994 10.2032 93.1187 10.2373 93.2379 10.2884C93.3742 10.3225 93.4935 10.3821 93.5957 10.4673C93.5446 10.5866 93.485 10.7569 93.4168 10.9784C93.3487 11.1829 93.2805 11.4044 93.2124 11.6429C93.1442 11.9155 93.059 12.1966 92.9568 12.4863C93.1783 12.1796 93.4254 11.8729 93.698 11.5662C93.9876 11.2425 94.2943 10.9529 94.618 10.6973C94.9588 10.4417 95.3166 10.2373 95.6914 10.0839C96.0662 9.91356 96.4496 9.82838 96.8415 9.82838C97.1652 9.82838 97.4548 9.92208 97.7104 10.1095C97.966 10.2969 98.1619 10.561 98.2982 10.9018C98.4515 11.2255 98.5367 11.6174 98.5538 12.0774C98.5878 12.5374 98.5282 13.04 98.3749 13.5852L98.0937 14.7097C98.0086 15.0675 97.8978 15.4935 97.7615 15.9876C97.6422 16.4646 97.4889 16.9928 97.3015 17.5721C97.1993 17.9469 97.1567 18.2707 97.1737 18.5433C97.2078 18.8159 97.3782 18.9522 97.6848 18.9522C97.9915 18.9522 98.3749 18.7648 98.8349 18.3899C99.312 18.0151 99.789 17.5636 100.266 17.0354C100.743 16.5072 101.195 15.9705 101.621 15.4253C102.047 14.8631 102.37 14.4116 102.592 14.0708C102.745 13.8493 102.89 13.7045 103.026 13.6363C103.163 13.5682 103.265 13.5597 103.333 13.6108C103.418 13.6619 103.461 13.7812 103.461 13.9686C103.461 14.139 103.393 14.3605 103.256 14.6331C103.137 14.8716 102.95 15.1868 102.694 15.5787C102.455 15.9705 102.166 16.388 101.825 16.831C101.484 17.2739 101.118 17.7254 100.726 18.1855C100.334 18.6284 99.9253 19.0374 99.4994 19.4122C99.0734 19.77 98.6475 20.0596 98.2215 20.2811C97.8126 20.5197 97.4207 20.6389 97.0459 20.6389ZM109.671 15.1186C109.586 15.6468 109.501 16.1494 109.415 16.6265C109.347 17.1036 109.305 17.4869 109.288 17.7766C109.271 18.2025 109.347 18.5092 109.518 18.6966C109.688 18.884 109.875 18.9777 110.08 18.9777C110.318 18.9777 110.608 18.8585 110.949 18.6199C111.307 18.3814 111.681 18.0832 112.073 17.7254C112.465 17.3676 112.857 16.9758 113.249 16.5498C113.641 16.1239 113.999 15.7235 114.322 15.3487C114.663 14.9568 114.944 14.616 115.166 14.3264C115.404 14.0367 115.566 13.8493 115.651 13.7641C115.754 13.6619 115.856 13.6023 115.958 13.5852C116.077 13.5682 116.171 13.5852 116.239 13.6363C116.307 13.6875 116.341 13.7812 116.341 13.9175C116.341 14.0538 116.273 14.2242 116.137 14.4286C115.932 14.7523 115.668 15.1357 115.345 15.5787C115.021 16.0046 114.663 16.4476 114.271 16.9076C113.879 17.3676 113.462 17.8191 113.019 18.2621C112.593 18.7051 112.159 19.097 111.716 19.4377C111.29 19.7785 110.872 20.0511 110.463 20.2556C110.071 20.4771 109.714 20.5878 109.39 20.5878C109.151 20.5878 108.921 20.5197 108.7 20.3834C108.495 20.247 108.308 20.0682 108.138 19.8467C107.967 19.6252 107.831 19.3781 107.729 19.1055C107.643 18.8329 107.609 18.5603 107.626 18.2877C107.643 18.1684 107.669 17.964 107.703 17.6743C106.988 18.4751 106.263 19.114 105.531 19.5911C104.815 20.0511 104.125 20.2811 103.461 20.2811C103.222 20.2811 102.967 20.2215 102.694 20.1022C102.421 19.983 102.174 19.787 101.953 19.5144C101.748 19.2418 101.578 18.884 101.442 18.441C101.305 17.998 101.254 17.4614 101.288 16.831C101.339 15.8428 101.535 14.9057 101.876 14.0197C102.217 13.1337 102.643 12.367 103.154 11.7196C103.682 11.0551 104.27 10.5354 104.917 10.1606C105.582 9.76874 106.246 9.57281 106.911 9.57281C107.2 9.57281 107.465 9.64948 107.703 9.80282C107.942 9.93912 108.146 10.1265 108.316 10.3651C108.487 10.5866 108.623 10.8336 108.725 11.1062C108.845 11.3788 108.93 11.6344 108.981 11.8729C109.1 11.3788 109.211 10.8932 109.313 10.4162C109.415 9.93912 109.518 9.48762 109.62 9.06167C109.79 8.43127 109.969 7.74975 110.157 7.01712C110.327 6.38672 110.523 5.66261 110.744 4.84479C110.966 4.02697 111.213 3.16656 111.486 2.26355C111.656 2.12725 111.818 2.02502 111.971 1.95687C112.124 1.88872 112.269 1.8376 112.406 1.80353C112.559 1.75241 112.704 1.72686 112.84 1.72686C113.01 1.72686 113.164 1.75241 113.3 1.80353C113.436 1.8376 113.547 1.94835 113.632 2.13576C113.735 2.30614 113.803 2.57023 113.837 2.92803C113.871 3.28582 113.871 3.7714 113.837 4.38477C113.803 5.13443 113.666 5.95225 113.428 6.83822C113.206 7.7242 112.908 8.64424 112.533 9.59836C112.159 10.5354 111.724 11.4811 111.23 12.4352C110.753 13.3723 110.233 14.2667 109.671 15.1186ZM108.163 15.4509C108.231 15.1272 108.291 14.8034 108.342 14.4797C108.41 14.156 108.487 13.8238 108.572 13.483C108.538 13.5 108.504 13.5171 108.47 13.5341C108.453 13.5512 108.427 13.5682 108.393 13.5852C108.206 13.6704 108.078 13.6704 108.01 13.5852C107.942 13.483 107.908 13.3297 107.908 13.1252C107.908 13.023 107.899 12.8441 107.882 12.5885C107.865 12.3159 107.814 12.0433 107.729 11.7707C107.661 11.4811 107.55 11.234 107.396 11.0295C107.243 10.8081 107.03 10.6973 106.758 10.6973C106.366 10.6973 105.965 10.9018 105.556 11.3107C105.147 11.7025 104.764 12.1881 104.406 12.7674C104.048 13.3297 103.75 13.9345 103.512 14.5819C103.273 15.2294 103.137 15.8087 103.103 16.3198C103.069 17.1376 103.171 17.7254 103.41 18.0832C103.648 18.441 103.972 18.6199 104.381 18.6199C104.687 18.6199 105.02 18.5007 105.377 18.2621C105.752 18.0236 106.11 17.734 106.451 17.3932C106.809 17.0524 107.132 16.7032 107.422 16.3454C107.729 15.9876 107.976 15.6894 108.163 15.4509Z" fill="#FEE000"/>
</svg>
